# xmcd
#
# Track frame offsets:
#	150
#	25123
#	37213
#	49187
#	67682
#	81753
#	101447
#	117190
#	137436
#	156135
#	172554
#
# Disc length: 2504 seconds
#
# Revision: 0
# Processed by: cddbd v1.5.2PL0 Copyright (c) Steve Scherf et al.
# Submitted via: dBpowerAMP V4.0
#
DISCID=7b09c60b
DTITLE=Jeffrey Michaels - Jeffrey Michaels
DYEAR=2005
DGENRE=Country
TTITLE0=Burning Through The Night
TTITLE1=I Don't Remember Why I Started Drinking
TTITLE2=One Woman Man
TTITLE3=West Virginia Rain
TTITLE4=Rocking Chair Cowboy
TTITLE5=Eddie's Guitar
TTITLE6=Maybe I Should Walk Away
TTITLE7=Mile High
TTITLE8=I Choose A Different Way
TTITLE9=Redneck, White Trash, Blue Collar Guy
TTITLE10=Long, Long Road
EXTD=
EXTT0=
EXTT1=
EXTT2=
EXTT3=
EXTT4=
EXTT5=
EXTT6=
EXTT7=
EXTT8=
EXTT9=
EXTT10=
PLAYORDER=
